<svg width="360" height="294" viewBox="0 0 360 294" fill="none" xmlns="http://www.w3.org/2000/svg">
<path d="M100.084 274.832C98.6613 272.654 95.5386 264.274 94.4335 248.186C93.0522 228.075 20.5318 50.7262 14.0018 40.4195C8.7778 32.1743 2.4906 22.6134 0 18.8636C14.0227 17.6277 52.5412 12.9059 94.4335 3.90648C107.87 -1.08902 103.68 -5.48821 105.421 18.8637C109.947 82.1488 117.552 100.086 107.054 138.647C114.254 144.282 130.7 158.732 138.888 171.452C149.122 187.352 132.414 148.991 186.544 128.938C215.552 118.191 227.231 130.511 239.349 144.303C259.504 167.241 260.006 151.781 262.769 153.164C265.532 154.547 279.659 153.164 282.422 153.164H296.863L302.012 144.303C313.523 153.352 337.211 171.452 339.873 171.452C343.201 171.452 357.563 167.544 359.526 175.632C360.593 180.031 359.526 177.14 359.526 184.524C358.73 189.509 357.052 201.165 356.7 207.902C356.7 219.164 352.975 226.337 351.112 228.515L346.905 238.822L341.757 236.937L339.873 244.918L359.526 270.622L322.104 294L293.158 259.875L326.311 236.937C325.097 235.386 323.033 231.909 324.49 230.401C326.311 228.515 273.003 232.286 258.06 244.918C246.105 255.023 247.804 245.065 250.148 238.822L244.058 248.186L241.735 249.129H227.231C223.819 251.601 216.707 256.079 215.552 254.219C214.108 251.894 213.229 242.153 209.462 248.186C206.448 253.012 196.653 257.99 192.132 259.875L182.777 257.55L166.891 266.914H152.387H142.153L126.204 270.622V264.086L100.084 274.832Z" fill="white"/>
</svg>
