<svg width="390" height="390" viewBox="0 0 390 390" fill="none" xmlns="http://www.w3.org/2000/svg">
<rect width="390" height="390" rx="30" fill="#2C7B95"/>
<path d="M115.084 322.832C113.661 320.654 110.539 312.274 109.434 296.186C108.052 276.075 35.5318 98.7262 29.0018 88.4195C23.7778 80.1743 17.4906 70.6134 15 66.8636C29.0227 65.6277 67.5412 60.9059 109.434 51.9065C122.87 46.911 118.68 42.5118 120.421 66.8637C124.947 130.149 132.552 148.086 122.054 186.647C129.254 192.282 145.7 206.732 153.888 219.452C164.122 235.352 147.414 196.991 201.544 176.938C230.552 166.191 242.231 178.511 254.349 192.303C274.504 215.241 275.006 199.781 277.769 201.164C280.532 202.547 294.659 201.164 297.422 201.164H311.863L317.012 192.303C328.523 201.352 352.211 219.452 354.873 219.452C358.201 219.452 372.563 215.544 374.526 223.632C375.593 228.031 374.526 225.14 374.526 232.524C373.73 237.509 372.052 249.165 371.7 255.902C371.7 267.164 367.975 274.337 366.112 276.515L361.905 286.822L356.757 284.937L354.873 292.918L374.526 318.622L337.104 342L308.158 307.875L341.311 284.937C340.097 283.386 338.033 279.909 339.49 278.401C341.311 276.515 288.003 280.286 273.06 292.918C261.105 303.023 262.804 293.065 265.148 286.822L259.058 296.186L256.735 297.129H242.231C238.819 299.601 231.707 304.079 230.552 302.219C229.108 299.894 228.229 290.153 224.462 296.186C221.448 301.012 211.653 305.99 207.132 307.875L197.777 305.55L181.891 314.914H167.387H157.153L141.204 318.622V312.086L115.084 322.832Z" fill="white"/>
</svg>
