<svg width="317" height="323" viewBox="0 0 317 323" fill="none" xmlns="http://www.w3.org/2000/svg">
<path d="M77.2252 181.456L88.4755 165.121L103.663 175.019L3.9376 309.642L7.79485 323C163.611 279.225 167.067 278.984 199.693 269.569C200.336 269.167 200.737 269.167 200.737 269.167C200.737 269.167 255.73 273.297 258.194 271.42L260.203 191.515C267.596 178.854 282.977 154.95 285.356 160.615C288.329 167.696 296.204 168.742 302.231 169.064C307.053 169.322 313.187 161.768 315.651 157.959C316.669 146.426 318.094 122.537 315.651 119.254C312.597 115.15 304.079 110.483 295.24 110.483C288.168 110.483 285.704 116.33 285.356 119.254L263.98 93.7456V8.04684L251.283 0L128.575 138.003L114.351 128.347L128.575 109.598L52.6353 56.8911L0 128.347L77.2252 181.456Z" fill="white"/>
</svg>
