<svg width="362" height="322" viewBox="0 0 362 322" fill="none" xmlns="http://www.w3.org/2000/svg">
<path d="M183.328 273.591C178.179 278.729 173.63 270.765 163.418 296.283C159.813 304.646 150.047 321.373 139.817 321.373C137.468 319.926 135.955 317.948 130.806 317.948C125.656 317.948 126.429 317.948 123.253 319.489C120.078 321.03 119.391 319.489 114.414 317.948C109.436 316.406 111.582 313.581 110.209 310.327C108.835 307.073 103.343 303.305 101.455 300.65C99.588 298.026 83.3757 292.974 81.6825 292.446L81.6301 292.43C80.257 292.002 101.111 297.996 81.6301 285.065C62.1488 272.135 76.3092 250.984 66.7831 244.134C59.1622 238.654 56.8565 232.716 56.6562 230.433C58.8304 227.636 62.8697 220.979 61.6339 216.732C60.1234 214.129 60.0891 207.141 60.2607 203.973L101.111 194.125C103 189.815 106.93 181.195 107.548 181.195H116.13C125.513 183.878 142.409 185.734 134.925 171.69C127.441 157.647 127.687 143.346 128.746 137.951C117.332 133.156 94.8466 130.758 69.1004 130.758C60.4324 126.477 19.2383 130.159 17.1785 120.911C16.6386 118.487 15.527 91.7964 17.1778 88.4568C20.5474 81.6399 14.928 71.274 2.41733 61.8256C0.958332 60.7237 -1.71501 40.0863 1.55953 32.6254C6.64246 21.0442 12.6897 19.1546 17.1785 19.8664V25.518H32.5405L42.2382 0H47.9024L53.6525 7.36426L86.007 19.8664H92.2719L98.0219 25.518L105.917 32.3685L113.384 39.1334L121.279 51.0361C124.512 49.723 131.767 47.8848 134.925 51.0361C138.083 54.1873 144.251 59.5421 146.94 61.8256V73.7283C146.94 75.9889 151.46 79.9793 153.72 81.6919C156.952 80.5787 163.864 78.0098 165.649 76.6397C167.88 74.9271 187.877 64.6514 191.309 61.8256C194.742 58.9997 204.354 51.0361 207.186 47.097C209.452 43.9458 216.14 35.965 219.201 32.3685L241.944 16.4411C247.236 21.7503 257.031 30.9984 253.873 25.518C250.715 20.0376 257.878 17.1833 261.854 16.4411C266.031 21.7503 275.397 32.3685 279.448 32.3685H292.578V57.2871L279.448 64.6514V89.0562C289.889 80.75 311.116 63.6752 312.489 61.8256C314.205 59.5135 354.541 40.2465 342.612 78.3523C333.069 108.837 343.956 119.427 350.593 120.911C354.77 140.206 362.883 179.585 361.922 182.736C360.72 186.676 347.16 188.988 347.16 195.838C347.16 202.689 372.22 196.951 350.593 223.668C333.292 245.042 338.063 272.306 342.612 283.267C338.264 284.78 328.537 287.566 324.418 286.607C319.268 285.408 293.694 283.267 283.481 283.267C273.268 283.267 258.421 284.894 247.007 283.267C235.593 281.64 241.343 280.356 227.097 261.089C212.85 241.822 205.47 252.012 200.406 255.437C195.343 258.862 188.477 268.453 183.328 273.591Z" fill="white"/>
</svg>
