<svg width="390" height="390" viewBox="0 0 390 390" fill="none" xmlns="http://www.w3.org/2000/svg">
<rect width="390" height="390" rx="30" fill="#F16532"/>
<path d="M197.328 306.591C192.179 311.729 187.63 303.765 177.418 329.283C173.813 337.646 164.047 354.373 153.817 354.373C151.468 352.926 149.955 350.948 144.806 350.948C139.656 350.948 140.429 350.948 137.253 352.489C134.078 354.03 133.391 352.489 128.414 350.948C123.436 349.406 125.582 346.581 124.209 343.327C122.835 340.073 117.343 336.305 115.455 333.65C113.588 331.026 97.3757 325.974 95.6825 325.446L95.6301 325.43C94.257 325.002 115.111 330.996 95.6301 318.065C76.1488 305.135 90.3092 283.984 80.7831 277.134C73.1622 271.654 70.8565 265.716 70.6562 263.433C72.8304 260.636 76.8697 253.979 75.6339 249.732C74.1234 247.129 74.0891 240.141 74.2607 236.973L115.111 227.125C117 222.815 120.93 214.195 121.548 214.195H130.13C139.513 216.878 156.409 218.734 148.925 204.69C141.441 190.647 141.687 176.346 142.746 170.951C131.332 166.156 108.847 163.758 83.1004 163.758C74.4324 159.477 33.2383 163.159 31.1785 153.911C30.6386 151.487 29.527 124.796 31.1778 121.457C34.5474 114.64 28.928 104.274 16.4173 94.8256C14.9583 93.7237 12.285 73.0863 15.5595 65.6254C20.6425 54.0442 26.6897 52.1546 31.1785 52.8664V58.518H46.5405L56.2382 33H61.9024L67.6525 40.3643L100.007 52.8664H106.272L112.022 58.518L119.917 65.3685L127.384 72.1334L135.279 84.0361C138.512 82.723 145.767 80.8848 148.925 84.0361C152.083 87.1873 158.251 92.5421 160.94 94.8256V106.728C160.94 108.989 165.46 112.979 167.72 114.692C170.952 113.579 177.864 111.01 179.649 109.64C181.88 107.927 201.877 97.6514 205.309 94.8256C208.742 91.9997 218.354 84.0361 221.186 80.097C223.452 76.9458 230.14 68.965 233.201 65.3685L255.944 49.4411C261.236 54.7503 271.031 63.9984 267.873 58.518C264.715 53.0376 271.878 50.1833 275.854 49.4411C280.031 54.7503 289.397 65.3685 293.448 65.3685H306.578V90.2871L293.448 97.6514V122.056C303.889 113.75 325.116 96.6752 326.489 94.8256C328.205 92.5135 368.541 73.2465 356.612 111.352C347.069 141.837 357.956 152.427 364.593 153.911C368.77 173.206 376.883 212.585 375.922 215.736C374.72 219.676 361.16 221.988 361.16 228.838C361.16 235.689 386.22 229.951 364.593 256.668C347.292 278.042 352.063 305.306 356.612 316.267C352.264 317.78 342.537 320.566 338.418 319.607C333.268 318.408 307.694 316.267 297.481 316.267C287.268 316.267 272.421 317.894 261.007 316.267C249.593 314.64 255.343 313.356 241.097 294.089C226.85 274.822 219.47 285.012 214.406 288.437C209.343 291.862 202.477 301.453 197.328 306.591Z" fill="white"/>
</svg>
