<svg width="311" height="323" viewBox="0 0 311 323" fill="none" xmlns="http://www.w3.org/2000/svg">
<path d="M106.147 166.117C112.108 171.057 113.598 269.081 113.598 317.475L243.177 323L252.14 317.475C250.844 313.755 247.842 305.318 246.201 301.331C244.149 296.347 243.609 266.444 244.581 264.819C245.553 263.194 264.342 242.5 256.243 221.048C249.764 203.886 263.406 201.545 271.037 202.521L294.037 209.996C316.843 206.703 311.818 190.567 306.455 182.91L266.825 144.664C265.854 140.981 267.905 133.245 283.887 131.771C299.868 130.298 299.616 119.312 297.492 114.003L273.736 95.0425C288.962 70.6649 264.126 47.5875 256.783 69.0398C242.638 110.365 231.515 104.035 230.759 103.168C230.003 102.302 201.388 83.558 197.392 76.8406C194.196 71.4667 199.588 61.889 202.684 57.7719L196.205 43.6871L173.42 37.1864C167.373 38.2265 147.073 30.144 155.495 18.4429C143.869 0.457698 122.247 -3.44289 122.56 2.73294C124.115 33.3295 88.4379 28.4829 70.4048 22.235C52.5876 24.1852 16.5646 28.0856 15.0096 28.0856C13.4547 28.0856 14.3617 35.3808 15.0096 39.0285L0 40.8703L24.6201 70.7735L20.0848 78.1409L16.9533 195.478L81.527 189.628C81.527 188.655 80.7351 175.86 80.3392 169.584C83.5787 169.584 104.311 164.595 106.147 166.117Z" fill="white"/>
</svg>
