<svg width="1003" height="828" viewBox="0 0 1003 828" fill="none" xmlns="http://www.w3.org/2000/svg">
<path d="M254.535 759.177C251.428 746.724 248.439 729.365 246.873 706.57C242.94 649.317 36.4585 144.414 17.8662 115.072C13.9151 108.836 9.75036 102.336 5.6314 95.9526C-6.70796 76.8281 5.57143 51.0028 28.1545 48.1728C81.6337 41.471 161.811 29.3931 246.873 11.1215C285.131 -3.10038 273.2 -15.6246 278.158 53.7037C290.264 222.968 310.108 278.284 287.681 375.389C284.964 387.153 289.008 399.514 298.17 407.376C321.389 427.299 354.876 459.269 373.444 488.113C402.584 533.379 355.011 424.169 509.132 367.078C591.725 336.483 624.976 371.557 659.479 410.821C716.865 476.126 718.295 432.112 726.161 436.048C734.027 439.985 774.251 436.048 782.117 436.048H813.51C819.533 436.048 825.096 432.844 828.122 427.637C833.283 418.755 845.093 416.481 853.215 422.772C888.163 449.84 939.161 488.113 945.694 488.113C955.169 488.113 996.062 476.987 1001.65 500.013C1004.57 512.034 1001.88 504.934 1001.66 522.934C1001.64 524.516 1001.52 526.101 1001.28 527.665C998.903 542.9 994.554 573.692 993.604 591.885C993.604 619.205 985.903 638.072 980.343 646.893L980.218 647.092C978.654 649.572 977.084 652.062 975.977 654.775L968.436 673.248C966.918 676.967 962.729 678.818 958.957 677.437C954.755 675.898 950.152 678.377 949.124 682.733L947.281 690.543C946.276 694.799 947.234 699.281 949.89 702.754L981.618 744.247C992.361 758.297 988.681 778.544 973.681 787.914L917.096 823.261C904.465 831.151 887.959 828.58 878.325 817.224L834.102 765.092C822.631 751.57 825.328 731.103 839.91 721.014L890.117 686.279C899.318 679.913 894.122 663.984 901.894 655.937C907.079 650.569 755.301 661.304 712.753 697.267C699.697 708.302 692.361 710.933 688.654 708.98C685.103 707.11 675.651 702.322 673.462 705.686C673.088 706.262 672.546 706.708 671.91 706.967L668.808 708.225C667.133 708.905 665.344 709.254 663.537 709.254H634.702C628.38 709.254 622.261 711.311 616.94 714.725C606.849 721.201 594.258 727.825 591.725 723.746C587.613 717.126 585.11 689.394 574.384 706.57C567.482 717.621 548.092 728.95 534.07 735.754C528.275 738.566 521.667 739.01 515.416 737.456L510.308 736.187C502.68 734.291 494.612 735.465 487.84 739.456L460.226 755.732C455.611 758.452 450.351 759.887 444.993 759.887H411.88H386.181C383.895 759.887 381.616 760.148 379.388 760.666L345.625 768.515C341.385 769.501 337.332 766.282 337.332 761.929C337.332 757.117 332.448 753.845 327.998 755.676L285.916 772.988C272.598 778.467 258.021 773.15 254.535 759.177Z" fill="#F16532"/>
</svg>
