<svg width="793" height="834" viewBox="0 0 793 834" fill="none" xmlns="http://www.w3.org/2000/svg">
<path d="M262.754 428.921C277.077 440.764 281.427 659.75 281.977 791.043C282.045 807.116 294.706 820.272 310.765 820.955L609.951 833.681C614.836 833.889 619.671 832.632 623.836 830.07C633.65 824.035 637.951 811.977 634.02 801.147C630.912 792.585 627.575 783.63 625.272 778.05C619.961 765.181 618.564 687.97 621.079 683.774C623.595 679.577 672.229 626.145 651.266 570.754C635.258 528.458 666.701 521.028 686.772 522.629C688.635 522.778 690.453 523.207 692.23 523.783L742.462 540.07C746.824 541.484 751.507 541.949 755.996 541.01C804.992 530.767 795.456 494.355 782.842 474.677C781.804 473.058 780.538 471.61 779.152 470.276L684.707 379.354C680.75 375.544 677.404 370.576 678.595 365.214C680.788 355.339 691.41 343.128 722.819 340.24C757.504 337.049 762.648 316.592 760.165 301.985C759.293 296.86 755.898 292.658 751.831 289.419L717.503 262.089C705.565 252.585 703.483 235.702 707.083 220.873C719.749 168.714 669.157 130.196 652.663 178.264C616.05 284.967 587.259 268.623 585.303 266.385C583.346 264.147 509.277 215.75 498.935 198.406C493.556 189.384 497.575 175.773 503.247 164.432C508.189 154.551 509.745 142.91 505.118 132.877L501.633 125.32C497.969 117.374 491.018 111.424 482.603 109.028L443.447 97.8844C439.128 96.6551 434.56 96.5311 430.099 96.0201C415.274 94.3223 390.263 83.3099 385.92 66.9246C382.749 54.9635 386.316 40.4927 377.798 31.5169C346.964 -0.97468 304.53 -6.84332 305.238 7.05656C309.087 82.6033 224.808 74.4636 176.612 59.5002C172.378 58.1857 167.981 57.6583 163.574 58.1385C115.714 63.3541 30.6906 72.5183 26.8512 72.5183C24.4581 72.5183 24.3179 79.1777 24.9501 86.5571C25.6154 94.3228 20.347 101.569 12.6106 102.516C1.95978 103.82 -3.04758 116.376 3.78278 124.651L41.3868 170.212C47.5695 177.703 48.2971 188.299 43.1963 196.564C41.0948 199.97 39.9316 203.87 39.8246 207.87L32.7844 471.017C32.3042 488.966 47.5919 503.314 65.4741 501.697L175.186 491.782C188.686 490.561 198.831 484.818 198.018 471.287C197.112 456.194 208.596 436.048 223.457 433.264C240.755 430.024 259.995 426.641 262.754 428.921Z" fill="#E34358"/>
</svg>
