<svg width="390" height="390" viewBox="0 0 390 390" fill="none" xmlns="http://www.w3.org/2000/svg">
<rect width="390" height="390" rx="30" fill="#E34358"/>
<path d="M146.147 199.117C152.108 204.057 153.598 302.081 153.598 350.475L283.177 356L292.14 350.475C290.844 346.755 287.842 338.318 286.201 334.331C284.149 329.347 283.609 299.444 284.581 297.819C285.553 296.194 304.342 275.5 296.243 254.048C289.764 236.886 303.406 234.545 311.037 235.521L334.037 242.996C356.843 239.703 351.818 223.567 346.455 215.91L306.825 177.664C305.854 173.981 307.905 166.245 323.887 164.771C339.868 163.298 339.616 152.312 337.492 147.003L313.736 128.043C328.962 103.665 304.126 80.5875 296.783 102.04C282.638 143.365 271.515 137.035 270.759 136.168C270.003 135.302 241.388 116.558 237.392 109.841C234.196 104.467 239.588 94.889 242.684 90.7719L236.205 76.6871L213.42 70.1864C207.373 71.2265 187.073 63.144 195.495 51.4429C183.869 33.4577 162.247 29.5571 162.56 35.7329C164.115 66.3295 128.438 61.4829 110.405 55.235C92.5876 57.1852 56.5646 61.0856 55.0096 61.0856C53.4547 61.0856 54.3617 68.3808 55.0096 72.0285L40 73.8703L64.6201 103.773L60.0848 111.141L56.9533 228.478L121.527 222.628C121.527 221.655 120.735 208.86 120.339 202.584C123.579 202.584 144.311 197.595 146.147 199.117Z" fill="white"/>
</svg>
