<svg width="821" height="836" viewBox="0 0 821 836" fill="none" xmlns="http://www.w3.org/2000/svg">
<path d="M205.296 452.777L212.314 442.571C218.466 433.624 230.633 431.221 239.725 437.155L245.335 440.817C254.971 447.106 257.326 460.208 250.484 469.458L8.17152 797.071C4.46894 802.077 3.30906 808.522 5.034 814.505L6.87944 820.906C9.92558 831.471 21.2155 837.515 31.8005 834.538C416.632 726.316 430.064 724.342 511.943 700.713C513.429 700.284 515.283 699.18 516.82 699.01C517.234 698.964 517.109 699.011 517.524 699.042C525.957 699.671 626.046 707.058 657.821 706.097C663.879 705.914 667.303 701.377 667.455 695.319L671.244 544.394C672.047 512.393 680.488 480.818 698.312 454.229C715.945 427.924 734.219 405.077 738.246 414.682C746.021 433.229 766.616 435.969 782.377 436.812C786.941 437.056 791.955 434.619 796.801 430.938C813.124 418.537 818.544 397.061 819.716 376.596C821.429 346.68 822.07 312.538 817.472 306.35C809.487 295.601 787.211 283.377 764.094 283.377C749.728 283.377 723.106 288.255 713.887 277.237L687.006 245.109C683.995 241.51 682.345 236.967 682.345 232.275V26.0701C682.345 19.2239 678.844 12.8535 673.064 9.18455L663.514 3.12297C655.23 -2.13553 644.354 -0.60747 637.84 6.73034L339.909 342.315C333.236 349.831 322.02 351.227 313.708 345.575L308.451 342.001C298.985 335.565 296.842 322.512 303.754 313.387L315.662 297.665C322.525 288.605 320.468 275.655 311.135 269.167L145.638 154.124C136.739 147.938 124.532 149.966 118.111 158.696L4.22259 313.547C-2.46563 322.641 -0.307284 335.465 8.9893 341.868L177.471 457.915C186.573 464.184 199.034 461.883 205.296 452.777Z" fill="#2C7B95"/>
</svg>
