<svg width="390" height="390" viewBox="0 0 390 390" fill="none" xmlns="http://www.w3.org/2000/svg">
<rect width="390" height="390" rx="30" fill="#2C7B95"/>
<path d="M114.225 214.456L125.476 198.121L140.663 208.019L40.9376 342.642L44.7948 356C200.611 312.225 204.067 311.984 236.693 302.569C237.336 302.167 237.737 302.167 237.737 302.167C237.737 302.167 292.73 306.297 295.194 304.42L297.203 224.515C304.596 211.854 319.977 187.95 322.356 193.615C325.329 200.696 333.204 201.742 339.231 202.064C344.053 202.322 350.187 194.768 352.651 190.959C353.669 179.426 355.094 155.537 352.651 152.254C349.597 148.15 341.079 143.483 332.24 143.483C325.168 143.483 322.704 149.33 322.356 152.254L300.98 126.746V41.0468L288.283 33L165.575 171.003L151.351 161.347L165.575 142.598L89.6353 89.8911L37 161.347L114.225 214.456Z" fill="white"/>
</svg>
