<svg width="931" height="830" viewBox="0 0 931 830" fill="none" xmlns="http://www.w3.org/2000/svg">
<path d="M471.487 706.424C458.244 719.69 446.546 699.127 420.281 765.016C412.001 784.304 391.078 820.819 367.956 828.4C362.659 830.136 357.286 827.918 352.53 825.011C348.851 822.761 344.283 820.955 336.409 820.955C323.166 820.955 325.152 820.955 316.986 824.935C308.819 828.915 307.053 824.935 294.252 820.955C281.45 816.975 286.968 809.679 283.437 801.277C279.905 792.875 265.78 783.146 260.924 776.292C256.123 769.515 214.427 756.471 210.073 755.108L209.938 755.066C206.407 753.961 260.041 769.438 209.938 736.051C159.836 702.665 196.254 648.052 171.754 630.364C160.055 621.917 153.226 613.05 149.512 606.02C145.987 599.347 148.445 591.763 152.141 585.183C155.973 578.362 159.402 570.053 159.083 563.203C158.97 560.783 157.829 558.57 157.117 556.255C156.472 554.159 155.992 551.649 155.642 548.956C153.933 535.817 163.799 524.533 176.677 521.416L245.56 504.745C254.682 502.537 262.211 496.171 266.135 487.645C270.687 477.75 275.535 467.854 276.595 467.854H294.447C297.247 467.854 300.019 468.264 302.734 468.952C327.31 475.179 365.21 477.613 347.003 443.311C335.012 420.72 330.737 397.87 329.877 380.485C329.175 366.301 321.693 352.203 307.872 348.937C277.415 341.739 233.606 337.976 184.747 337.648C180.123 337.617 175.603 336.477 171.107 335.398C139.599 327.842 49.0668 334.225 44.1801 312.197C42.7916 305.938 39.9327 237.022 44.1783 228.399C52.8444 210.798 38.3921 184.033 6.21693 159.636C2.46466 156.791 -4.4107 103.504 4.01083 84.2402C14.6924 59.806 27.0298 52.0797 37.4835 51.0735C41.3363 50.7027 44.1801 54.1445 44.1801 58.0151C44.1801 62.3636 47.7053 65.8887 52.0537 65.8887H67.5479C77.2622 65.8887 85.9633 59.8787 89.4024 50.7935L105.61 7.97597C107.427 3.17555 112.025 0 117.158 0C120.968 0 124.565 1.75929 126.904 4.76711L132.89 12.4643C136.224 16.7509 140.659 20.0522 145.721 22.0162L216.489 49.4703C219.599 50.6769 222.906 51.2959 226.242 51.2959C233.332 51.2959 240.137 54.0879 245.183 59.0677L252.095 65.8887L272.401 83.5769L288.828 98.5196C290.671 100.196 292.298 102.095 293.671 104.174L298.341 111.242C306.229 123.181 321.67 126.235 335.932 127.39C340.29 127.743 344.251 129.021 347.003 131.777C352.132 136.915 360.345 144.32 367.445 150.566C374.041 156.369 377.903 164.697 377.903 173.482V190.37C377.903 193.024 380.307 196.602 383.475 200.13C390.18 207.598 401.074 209.048 410.397 205.334C417.077 202.672 423.513 199.818 426.02 197.887C431.758 193.465 483.185 166.933 492.014 159.636C500.843 152.34 525.563 131.777 532.846 121.607C538.12 114.243 552.708 96.6677 561.267 86.5111C562.911 84.56 564.803 82.8341 566.89 81.3665L601.529 57.0119C613.489 48.6021 629.656 50.1767 640.484 60.0021C650.275 68.8866 657.922 74.6092 652.916 65.8887C648.744 58.6195 651.576 53.1397 656.704 49.2692C665.638 42.5261 677.7 48.0487 685.129 56.4206C696.7 69.4598 711.214 83.5769 718.69 83.5769H722.456C739.025 83.5769 752.459 97.0083 752.459 113.577V130.381C752.459 141.215 746.619 151.207 737.179 156.522L730.743 160.146C723.297 164.339 718.69 172.22 718.69 180.765C718.69 200.597 741.6 211.6 756.991 199.092C779.657 180.672 801.476 162.597 803.666 159.636C808.08 153.666 911.817 103.918 881.137 202.309C863.709 258.202 872.776 288.194 885.609 302.257C893.49 310.895 903.243 319.488 905.659 330.929C916.836 383.87 932.99 464.619 930.798 471.833C927.708 482.004 892.835 487.974 892.835 505.662C892.835 523.35 957.284 508.537 901.664 577.521C869.027 617.999 866.93 666.662 872.747 700.894C875.634 717.878 867.483 736.662 850.488 739.483C844.093 740.545 838.243 740.942 834.345 740.031C821.102 736.936 755.329 731.408 729.063 731.408C702.798 731.408 664.614 735.609 635.259 731.408C605.904 727.207 620.692 723.891 584.053 674.143C547.414 624.394 528.432 650.706 515.41 659.55C502.388 668.394 484.73 693.157 471.487 706.424Z" fill="#FBBC1A"/>
</svg>
